<?xml version="1.0" encoding="UTF-8"?><svg id="laubf-og_Image" xmlns="http://www.w3.org/2000/svg" viewBox="0 0 2371.16 1981.17"><path d="M484.82,968.28l500.61,2.23c118.68,12.33,171.15,167.6,119.52,263.01-16.98,31.38-42.58,38.76-72.33,53.63,37.7,16.75,71.69,36.21,83.01,78.99,9.74,36.84,8.47,121.18-4.96,157-57.01,152.02-258.25,90.14-381.92,102.95,194.39,207.63,528.67,261.89,800.14,215.3,382.62-65.65,711.74-363.45,646.84-779.6-61.31-393.14-497.16-614.29-866.35-585.48,18.89,94.56,35.09,189.8,53.74,284.44,6.02,30.55,26.36,90.45,27.28,116.85,1.42,40.95-75.85,42.03-100.68,10.53-54.2-68.76-58.16-293.18-81.59-382.27-1.12-3.54-1.93-6.83-6.4-7.39-6.25-.79-115.03,36.15-118.85,41.16-41.05,97.09-48.26,211.47-80.33,309.55-3.62,11.07-9.96,31.77-21.41,36.66-50.03,21.39-12.98-117.93-9.49-135.53,12.28-61.8,30.37-122.25,42.99-183.94-111.24,42.42-221.87,107.3-314.85,182-24.94,20.03-107.04,105.02-123.61,112.32-23.13,10.19-38.59-4.65-41.34-27.44-15.64-129.53,163.69-372.65,226.14-493.55,46.48-89.97,72.58-193.2,115.36-276.52,7.5-14.6,18.97-27.29,30.44-5.74,26.04,48.92-30.35,204.77-51.12,256.98-36.77,92.44-87.78,178.76-122.91,271.94,44.67-17.18,86.91-39.81,131.42-57.5,59.54-23.67,121.72-39.86,180.54-65.38,33.09-90.18,59.7-182.79,93-272.89,7.53-20.38,39.59-113.38,52.19-121.75,25.02-16.62,34,7.28,39.37,26,24.34,84.94,32.77,186.45,53.83,274.07,1.43,5.94,7.1,31.39,10.28,33.71,203.78-19.57,415.02,6.47,601.44,92.34,578.14,266.3,633.05,966.83,77.78,1296.3-384.67,228.24-991.12,193.29-1287.84-164.2v-125.96l3-3h247.92c22.78,0,22.36-35.99,22.95-51.03.67-17.22.82-71.3-2.08-85.8-2.1-10.51-14.45-19.11-24.76-19.22l-247.02-1.9v-121.96h248.92c2.81,0,15.49-7.08,17.9-10.09,9.11-11.37,17.96-117.22-12.85-120.92l-328.08-.08c-2.22,1.66-3.6,17.92-3.96,22.03-14.8,166.06,63.3,396.16-123.82,491.99-72.64,37.2-258.77,38.63-333.28,7.31-59.35-24.94-138.61-109.99-138.61-177.3v-459.86l3-3h112.96l1.93,422.94c2.31,59.61,44.24,102.81,103.32,108.61,82.14,8.06,252.64,17.17,252.64-104.68v-426.87ZM1178.58,256.51c-6.42-5.04-23.19,56.36-24.5,60.44-8.6,26.84-31.96,89.18-35.01,113.01-.49,3.82-1.9,7.61,2.48,10.11l72.68-21.08-15.65-162.48Z"/><path d="M1790.4,968.28v161.95h-396.87c-3.13,0-16.99,11.25-16.99,15v56.98l5,2h408.87v153.95h-410.87l-3,3v263.92l-3,3h-184.94l.05-514.79c11.02-82.15,72.6-138.44,154.95-144.96l446.81-.05Z"/></svg>