<svg width="1186" height="991" viewBox="0 0 1186 991" fill="none" xmlns="http://www.w3.org/2000/svg">
<path d="M242.495 484.345L492.889 485.46C552.25 491.628 578.494 569.295 552.67 617.02C544.177 632.717 531.372 636.408 516.492 643.846C535.349 652.225 552.35 661.959 558.012 683.358C562.883 701.786 562.248 743.973 555.531 761.891C527.016 837.933 426.36 806.98 364.503 813.387C461.733 917.246 628.932 944.387 764.715 921.082C956.093 888.244 1120.71 739.281 1088.25 531.119C1057.58 334.467 839.581 223.845 654.921 238.256C664.369 285.556 672.472 333.196 681.801 380.536C684.812 395.817 694.985 425.78 695.445 438.986C696.156 459.469 657.507 460.009 645.088 444.253C617.978 409.858 615.997 297.601 604.278 253.038C603.718 251.267 603.313 249.621 601.077 249.341C597.951 248.946 543.542 267.424 541.631 269.93C521.099 318.495 517.492 375.709 501.452 424.77C499.641 430.307 496.47 440.661 490.743 443.107C465.719 453.807 484.251 384.118 485.996 375.314C492.138 344.401 501.187 314.163 507.499 283.305C451.859 304.524 396.525 336.978 350.018 374.343C337.544 384.363 296.479 426.875 288.191 430.527C276.622 435.624 268.889 428.201 267.514 416.801C259.691 352.009 349.388 230.398 380.624 169.923C403.872 124.919 416.927 73.2824 438.324 31.605C442.076 24.3019 447.813 17.9542 453.55 28.7338C466.574 53.204 438.369 131.162 427.981 157.278C409.589 203.517 384.075 246.695 366.504 293.305C388.847 284.711 409.974 273.391 432.237 264.542C462.018 252.703 493.119 244.604 522.539 231.839C539.09 186.73 552.4 140.406 569.056 95.3366C572.822 85.1424 588.858 38.6229 595.16 34.4361C607.674 26.1227 612.166 38.0777 614.852 47.4416C627.026 89.9294 631.243 140.706 641.776 184.534C642.492 187.505 645.328 200.236 646.918 201.396C748.844 191.607 854.502 204.632 947.745 247.585C1236.92 380.791 1264.38 731.203 986.649 896.007C794.245 1010.17 490.913 992.692 342.5 813.873V750.866L344.001 749.365H468.005C479.399 749.365 479.189 731.363 479.484 723.84C479.819 715.226 479.894 688.175 478.444 680.922C477.393 675.665 471.216 671.363 466.059 671.308L342.505 670.357V609.352H467.01C468.415 609.352 474.757 605.81 475.963 604.305C480.519 598.617 484.946 545.67 469.535 543.819L305.437 543.779C304.327 544.61 303.637 552.743 303.457 554.799C296.054 637.864 335.118 752.962 241.525 800.897C205.192 819.505 112.094 820.22 74.8256 804.554C45.1401 792.078 5.49609 749.536 5.49609 715.867V485.84L6.99663 484.34H63.4966L64.462 695.898C65.6174 725.716 86.5898 747.325 116.14 750.226C157.225 754.258 242.505 758.814 242.505 697.864V484.34L242.495 484.345ZM589.498 128.31C586.287 125.789 577.899 156.502 577.244 158.543C572.942 171.969 561.258 203.152 559.732 215.072C559.487 216.983 558.782 218.878 560.973 220.129L597.326 209.584L589.498 128.31Z" fill="url(#paint0_linear_602_2607)"/>
<path d="M895.516 484.345V565.353H697.011C695.445 565.353 688.513 570.981 688.513 572.857V601.359L691.014 602.359H895.521V679.366H690.014L688.513 680.867V812.882L687.013 814.383H594.51L594.535 556.88C600.047 515.788 630.848 487.631 672.037 484.37L895.521 484.345H895.516Z" fill="url(#paint1_linear_602_2607)"/>
<defs>
<linearGradient id="paint0_linear_602_2607" x1="593.005" y1="22.9766" x2="593.005" y2="968.004" gradientUnits="userSpaceOnUse">
<stop stop-color="#2B85F1"/>
<stop offset="1" stop-color="#00144F"/>
</linearGradient>
<linearGradient id="paint1_linear_602_2607" x1="593.005" y1="22.9766" x2="593.005" y2="968.004" gradientUnits="userSpaceOnUse">
<stop stop-color="#2B85F1"/>
<stop offset="1" stop-color="#00144F"/>
</linearGradient>
</defs>
</svg>
